<?xml version="1.0" encoding="UTF-8" standalone="no"?>
<!-- Created with Inkscape (http://www.inkscape.org/) -->

<svg
   width="400mm"
   height="220mm"
   viewBox="0 0 400 220"
   version="1.1"
   id="svg5"
   xml:space="preserve"
   inkscape:version="1.2.2 (b0a8486541, 2022-12-01)"
   sodipodi:docname="UI_WAVES.svg"
   inkscape:export-filename="UI_WAVES.png"
   inkscape:export-xdpi="124.69091"
   inkscape:export-ydpi="124.69091"
   xmlns:inkscape="http://www.inkscape.org/namespaces/inkscape"
   xmlns:sodipodi="http://sodipodi.sourceforge.net/DTD/sodipodi-0.dtd"
   xmlns:xlink="http://www.w3.org/1999/xlink"
   xmlns="http://www.w3.org/2000/svg"
   xmlns:svg="http://www.w3.org/2000/svg"><sodipodi:namedview
     id="namedview7"
     pagecolor="#ffffff"
     bordercolor="#000000"
     borderopacity="0.25"
     inkscape:showpageshadow="2"
     inkscape:pageopacity="0.0"
     inkscape:pagecheckerboard="0"
     inkscape:deskcolor="#d1d1d1"
     inkscape:document-units="mm"
     showgrid="false"
     inkscape:zoom="0.26268005"
     inkscape:cx="588.168"
     inkscape:cy="723.3134"
     inkscape:window-width="1920"
     inkscape:window-height="1007"
     inkscape:window-x="0"
     inkscape:window-y="0"
     inkscape:window-maximized="1"
     inkscape:current-layer="layer1" /><defs
     id="defs2"><linearGradient
       inkscape:collect="always"
       id="linearGradient10203"><stop
         style="stop-color:#00d8ff;stop-opacity:0.75497741;"
         offset="0"
         id="stop10199" /><stop
         style="stop-color:#26daff;stop-opacity:0;"
         offset="1"
         id="stop10201" /></linearGradient><linearGradient
       inkscape:collect="always"
       id="linearGradient3210"><stop
         style="stop-color:#00cbff;stop-opacity:1;"
         offset="0"
         id="stop3206" /><stop
         style="stop-color:#c3f3ff;stop-opacity:1;"
         offset="0.2048579"
         id="stop3214" /><stop
         style="stop-color:#00cbff;stop-opacity:1;"
         offset="0.51907378"
         id="stop10180" /><stop
         style="stop-color:#c3f3ff;stop-opacity:1;"
         offset="0.80121446"
         id="stop10182" /><stop
         style="stop-color:#00cbff;stop-opacity:1;"
         offset="1"
         id="stop3208" /></linearGradient><linearGradient
       inkscape:collect="always"
       xlink:href="#linearGradient3210"
       id="linearGradient3212"
       x1="20.120577"
       y1="138.08846"
       x2="18.867292"
       y2="92.281754"
       gradientUnits="userSpaceOnUse"
       gradientTransform="rotate(3.8836055,-707.77808,3627.1865)" /><linearGradient
       inkscape:collect="always"
       xlink:href="#linearGradient10203"
       id="linearGradient10205"
       x1="246.65288"
       y1="163.85051"
       x2="246.82231"
       y2="158.20535"
       gradientUnits="userSpaceOnUse" /><linearGradient
       inkscape:collect="always"
       xlink:href="#linearGradient3210"
       id="linearGradient10249"
       gradientUnits="userSpaceOnUse"
       gradientTransform="matrix(-0.9977037,0.06772981,0.06772981,0.9977037,369.61517,93.519033)"
       x1="20.120577"
       y1="138.08846"
       x2="18.867292"
       y2="92.281754" /><linearGradient
       inkscape:collect="always"
       xlink:href="#linearGradient3210"
       id="linearGradient10294"
       gradientUnits="userSpaceOnUse"
       gradientTransform="matrix(0.99770369,-0.06772989,-0.06772989,-0.99770369,20.512506,308.58098)"
       x1="20.120577"
       y1="138.08846"
       x2="18.867292"
       y2="92.281754" /></defs><g
     inkscape:label="Layer 1"
     inkscape:groupmode="layer"
     id="layer1"><rect
       style="fill:url(#linearGradient10205);fill-opacity:1;stroke-width:1.243"
       id="rect10196"
       width="405.95206"
       height="70.856232"
       x="-2.7612422"
       y="150.53651"
       ry="0" /><path
       id="path356"
       style="fill:url(#linearGradient3212);fill-opacity:1;stroke-width:1.04907"
       d="m -45.746992,133.44599 c 0,0 22.876908,10.79807 50.2651487,20.02771 -20.3627107,1.24537 -38.7872967,7.92252 -38.7872967,7.92252 0,0 35.26892243,-8.67963 58.697709,0.0222 6.667451,2.4764 15.52809,3.4498 24.791252,3.57859 7.567979,1.14033 14.727245,1.64301 21.072616,1.23352 41.027353,-2.64767 92.576263,24.71684 92.576263,24.71684 0,0 -5.36912,-3.59944 -14.18053,-8.49716 5.92904,1.72149 12.22371,3.13944 18.67689,4.30671 -3.05049,1.37449 -4.87619,2.2717 -4.87619,2.2717 0,0 2.212,-0.82809 5.98155,-2.07533 40.99676,7.2148 87.87371,4.43281 87.87371,4.43281 0,0 -30.48391,0.32063 -64.56557,-7.19439 7.20639,0.15207 13.96116,-0.22782 19.88819,-1.33739 40.41068,-7.56511 94.87793,13.39763 94.87793,13.39763 0,0 -33.22271,-16.88273 -69.52909,-22.24412 7.57436,-0.1347 15.08024,0.32216 22.16247,1.62316 15.356,2.82086 36.14073,0.95163 56.17177,-2.49907 39.27698,10.48524 90.57296,-5.97631 104.52075,-10.9275 17.8144,-3.30864 30.54439,-6.5934 30.54439,-6.5934 0,0 -43.1412,9.27283 -84.30545,5.76761 8.8816,-2.51632 14.4849,-4.33204 14.4849,-4.33204 0,0 -6.6517,1.85991 -17.17311,4.07882 -7.04381,-0.69886 -14.00363,-1.77488 -20.64525,-3.3662 -25.8146,-6.1851 -56.50993,-0.6912 -78.57867,5.3604 -6.82314,0.6909 -13.45938,1.53256 -19.64996,2.42879 -12.45689,0.92192 -24.89666,3.44622 -36.19779,6.51485 -0.13455,0.0303 -0.82889,0.18035 -0.82889,0.18035 0,0 0.38032,-0.0644 0.42633,-0.0729 -0.97323,0.26601 -1.93044,0.53703 -2.88561,0.81029 -1.77838,0.19192 -3.54432,0.42746 -5.29012,0.72244 -12.13389,2.05018 -25.17436,2.39678 -37.84265,1.7973 -6.85725,-2.57698 -13.54554,-5.56807 -19.8391,-9.04802 C 108.43211,147.84222 61.830367,151.66087 38.722271,155.17127 -3.2824327,151.41209 -45.746992,133.44599 -45.746992,133.44599 Z m 456.849112,30.31029 c -14.7587,3.06266 -40.30811,7.12925 -64.21882,4.8302 19.91437,1.38107 44.17889,-1.45949 64.21882,-4.8302 z" /><path
       id="path356-5"
       style="fill:url(#linearGradient10249);fill-opacity:1;stroke-width:1.04907"
       d="m 659.40555,170.69824 c 0,0 -22.87691,10.79807 -50.26515,20.02771 20.36271,1.24537 38.7873,7.92252 38.7873,7.92252 0,0 -35.26892,-8.67963 -58.69771,0.0222 -6.66745,2.4764 -15.52809,3.4498 -24.79125,3.57859 -7.56798,1.14033 -14.72726,1.64301 -21.07263,1.23352 -41.02735,-2.64767 -92.57626,24.71684 -92.57626,24.71684 0,0 5.36912,-3.59944 14.18053,-8.49716 -5.92904,1.72149 -12.22371,3.13944 -18.67689,4.30671 3.05049,1.37449 4.87619,2.2717 4.87619,2.2717 0,0 -2.212,-0.82809 -5.98155,-2.07533 -40.99676,7.2148 -87.87371,4.43281 -87.87371,4.43281 0,0 30.48391,0.32063 64.56557,-7.19439 -7.20639,0.15207 -13.96116,-0.22782 -19.88819,-1.33739 -40.41068,-7.56511 -94.87793,13.39763 -94.87793,13.39763 0,0 33.22271,-16.88273 69.52909,-22.24412 -7.57436,-0.1347 -15.08024,0.32216 -22.16247,1.62316 -15.356,2.82086 -36.14073,0.95163 -56.17177,-2.49907 -39.27698,10.48524 -90.57296,-5.97631 -104.52075,-10.9275 -17.8144,-3.30864 -30.54439,-6.5934 -30.54439,-6.5934 0,0 43.1412,9.27283 84.30545,5.76761 -8.8816,-2.51632 -14.4849,-4.33204 -14.4849,-4.33204 0,0 6.6517,1.85991 17.17311,4.07882 7.04381,-0.69886 14.00363,-1.77488 20.64525,-3.3662 25.8146,-6.1851 56.50993,-0.6912 78.57867,5.3604 6.82314,0.6909 13.45938,1.53256 19.64996,2.42879 12.45689,0.92192 24.89666,3.44622 36.19779,6.51485 0.13455,0.0303 0.82889,0.18035 0.82889,0.18035 0,0 -0.38032,-0.0644 -0.42633,-0.0729 0.97323,0.26601 1.93044,0.53703 2.88561,0.81029 1.77838,0.19192 3.54432,0.42746 5.29012,0.72244 12.13389,2.05018 25.17436,2.39678 37.84265,1.7973 6.85725,-2.57698 13.54554,-5.56807 19.8391,-9.04802 33.65749,-18.61049 80.25923,-14.79184 103.36734,-11.28144 42.0047,-3.75918 84.46926,-21.72528 84.46926,-21.72528 z m -456.84912,30.31029 c 14.7587,3.06266 40.30811,7.12925 64.21882,4.8302 -19.91437,1.38107 -44.17889,-1.45949 -64.21882,-4.8302 z" /><path
       id="path356-5-7"
       style="fill:url(#linearGradient10294);fill-opacity:1;stroke-width:1.04907"
       d="m -269.27789,231.40176 c 0,0 22.87691,-10.79807 50.26515,-20.02771 -20.36271,-1.24538 -38.7873,-7.92252 -38.7873,-7.92252 0,0 35.26892,8.67963 58.69771,-0.0222 6.66745,-2.47641 15.52809,-3.4498 24.79125,-3.57859 7.56798,-1.14033 14.72726,-1.64301 21.07263,-1.23352 41.02735,2.64767 92.576256,-24.71684 92.576256,-24.71684 0,0 -5.36912,3.59944 -14.18053,8.49716 5.92904,-1.72149 12.22371,-3.13944 18.67689,-4.30671 -3.05049,-1.37449 -4.87619,-2.2717 -4.87619,-2.2717 0,0 2.212,0.82809 5.98155,2.07533 40.99676,-7.2148 87.87371,-4.43281 87.87371,-4.43281 0,0 -30.4839095,-0.32063 -64.56557,7.19439 7.20639,-0.15207 13.96116,0.22782 19.88819,1.33739 40.41068,7.56511 94.87793,-13.39763 94.87793,-13.39763 0,0 -33.22271,16.88273 -69.52909,22.24412 7.57436,0.1347 15.08024,-0.32216 22.16247,-1.62316 15.356,-2.82086 36.14073,-0.95163 56.17177,2.49907 39.276984,-10.48524 90.572964,5.97631 104.520754,10.9275 17.8144,3.30864 30.54439,6.5934 30.54439,6.5934 0,0 -43.1412,-9.27283 -84.30545,-5.76761 8.8816,2.51632 14.4849,4.33204 14.4849,4.33204 0,0 -6.6517,-1.85991 -17.17311,-4.07882 -7.04381,0.69886 -14.00363,1.77488 -20.64525,3.3662 -25.814604,6.1851 -56.509934,0.6912 -78.578674,-5.3604 -6.82314,-0.6909 -13.45938,-1.53256 -19.64996,-2.42879 -12.4568895,-0.92192 -24.8966595,-3.44622 -36.19779,-6.51485 -0.13455,-0.0303 -0.82889,-0.18035 -0.82889,-0.18035 0,0 0.38032,0.0644 0.42633,0.0729 -0.97323,-0.26601 -1.93044,-0.53703 -2.88561,-0.81029 -1.77838,-0.19192 -3.54432,-0.42746 -5.29012,-0.72244 -12.13389,-2.05018 -25.17436,-2.39678 -37.84265,-1.7973 -6.85725,2.57698 -13.54554,5.56807 -19.8391,9.04802 -33.657486,18.61049 -80.259226,14.79184 -103.367336,11.28144 -42.0047,3.75918 -84.46926,21.72528 -84.46926,21.72528 z m 456.84912,-30.31029 c -14.7587,-3.06266 -40.30811,-7.12926 -64.21882,-4.8302 19.91437,-1.38107 44.17889,1.45949 64.21882,4.8302 z" /></g></svg>
